<?xml version="1.0" encoding="UTF-8"?>
<!DOCTYPE svg PUBLIC "-//W3C//DTD SVG 1.1//EN" "http://www.w3.org/Graphics/SVG/1.1/DTD/svg11.dtd">
<!-- Creator: CorelDRAW -->
<svg xmlns="http://www.w3.org/2000/svg" xml:space="preserve" width="100%" height="100%" style="shape-rendering:geometricPrecision; text-rendering:geometricPrecision; image-rendering:optimizeQuality; fill-rule:evenodd; clip-rule:evenodd"
viewBox="0 0 15 4.4365"
 xmlns:xlink="http://www.w3.org/1999/xlink">
 <defs>
  <style type="text/css">
   <![CDATA[
    .fil3 {fill:#95BF2A}
    .fil0 {fill:#EBECEC}
    .fil2 {fill:#FBBE07}
    .fil1 {fill:#00ACE9}
    .fil4 {fill:#00B1A8}
   ]]>
  </style>
 </defs>
 <g id="Layer_x0020_1">
  <metadata id="CorelCorpID_0Corel-Layer"/>
  <g id="_258672952">
   <g>
    <path id="_259219648" class="fil0" d="M14.0686 2.85969l0 -0.51641 0.37839 0 0.2922 0.51641 0.23238 0 -0.31852 -0.54167 0.04405 -0.01057c0.04873,-0.0117 0.09659,-0.03149 0.13443,-0.06507 0.03568,-0.03167 0.06203,-0.07019 0.07916,-0.11468 0.01912,-0.04964 0.02534,-0.10413 0.02534,-0.15702 0,-0.05244 -0.00571,-0.10491 -0.02221,-0.15488 -0.01531,-0.04637 -0.04349,-0.08583 -0.07804,-0.11985 -0.03091,-0.03042 -0.06729,-0.0548 -0.10996,-0.06474 -0.03848,-0.00896 -0.07777,-0.01644 -0.11709,-0.02043 -0.03398,-0.00345 -0.06813,-0.00534 -0.10228,-0.00534l-0.64826 0 0 1.25425 0.21041 0zm0.37353 -1.08428c0.0637,0 0.1379,0.0059 0.19665,0.03237 0.06639,0.02993 0.08499,0.0991 0.08499,0.16657 0,0.04746 -0.0086,0.09883 -0.04201,0.1349 -0.02904,0.03136 -0.06595,0.0504 -0.10774,0.058 -0.04291,0.0078 -0.08834,0.00973 -0.13189,0.00973l-0.37353 0 0 -0.40157 0.37353 0z"/>
    <polygon id="_259218856" class="fil0" points="13.7028,1.60544 13.4814,1.60544 13.0524,2.64381 12.6332,1.60544 12.3945,1.60544 12.9388,2.85969 13.1829,2.85969 "/>
    <polygon id="_259218736" class="fil0" points="10.8154,2.85969 10.8033,1.76566 11.4239,2.85969 11.6905,2.85969 11.6905,1.60544 11.4787,1.60544 11.4908,2.65395 10.8977,1.60544 10.598,1.60544 10.598,2.85969 "/>
    <path id="_259218208" class="fil0" d="M9.13012 1.95075c-0.02672,0.09079 -0.03907,0.18447 -0.03907,0.27905 0,0.0834 0.00612,0.17309 0.02903,0.25362 0.0151,0.05302 0.03429,0.11176 0.06134,0.16001 0.02035,0.0363 0.04562,0.06917 0.0762,0.09745 0.02711,0.02507 0.05703,0.04831 0.08961,0.06585 0.0242,0.01303 0.04994,0.02618 0.07573,0.03576 0.02128,0.00791 0.044,0.01317 0.06616,0.01796 0.07579,0.01637 0.15232,0.0268 0.22998,0.0268 0.08287,0 0.16527,-0.01103 0.2458,-0.03032 0.08057,-0.01929 0.15133,-0.05666 0.21189,-0.11319 0.06481,-0.06049 0.10522,-0.13813 0.12937,-0.22267 0.02679,-0.09374 0.04098,-0.19006 0.04098,-0.28759 0,-0.09696 -0.01365,-0.19249 -0.04091,-0.28552 -0.02467,-0.08419 -0.06647,-0.15751 -0.1278,-0.22032 -0.0253,-0.02591 -0.05292,-0.0492 -0.08484,-0.06655 -0.02286,-0.01245 -0.05033,-0.02722 -0.07513,-0.03522 -0.03327,-0.01074 -0.06877,-0.01932 -0.10268,-0.0279 -0.06224,-0.01575 -0.1364,-0.01826 -0.20036,-0.01826 -0.03982,0 -0.08005,0.00124 -0.11967,0.00533 -0.03879,0.00401 -0.07768,0.01226 -0.11537,0.02206 -0.04189,0.0109 -0.08223,0.02653 -0.12047,0.0468 -0.04532,0.02404 -0.08805,0.06075 -0.12462,0.09639 -0.05271,0.05134 -0.08479,0.13115 -0.10517,0.20046zm0.21852 0.0752c0.03333,-0.11896 0.10253,-0.22323 0.2239,-0.26353 0.04682,-0.01555 0.0955,-0.02193 0.14472,-0.02193 0.02575,0 0.05147,0.00191 0.0769,0.00593 0.0281,0.00443 0.05599,0.01183 0.08308,0.02047 0.03536,0.0113 0.06666,0.03096 0.09409,0.05578 0.02599,0.02351 0.04928,0.05041 0.06647,0.08106 0.01065,0.01898 0.02277,0.04083 0.02998,0.06138 0.00975,0.02789 0.01724,0.05945 0.02468,0.08808 0.01506,0.05783 0.01854,0.12258 0.01854,0.18212 0,0.07001 -0.01023,0.13845 -0.02666,0.20638 -0.02989,0.12348 -0.09411,0.22324 -0.21866,0.26468 -0.0479,0.01594 -0.09808,0.02193 -0.14842,0.02193 -0.06367,0 -0.13164,-0.01851 -0.19128,-0.03958 -0.0923,-0.03263 -0.14074,-0.11199 -0.16377,-0.20356 -0.0207,-0.08225 -0.03686,-0.1703 -0.03686,-0.25536 0,-0.068 0.00489,-0.13813 0.02329,-0.20385z"/>
    <polygon id="_259218184" class="fil0" points="8.60956,1.60544 8.60956,2.85969 8.83283,2.85969 8.83283,1.60544 "/>
    <path id="_259218568" class="fil0" d="M7.2 2.68971l0 0.16998 0.70524 0c0.06166,0 0.12675,-0.00453 0.18681,-0.01926 0.04645,-0.01138 0.09178,-0.02895 0.12997,-0.05832 0.03208,-0.02468 0.0585,-0.05497 0.07393,-0.09271 0.01288,-0.03145 0.02499,-0.06553 0.03114,-0.09903 0.00558,-0.03034 0.00772,-0.06142 0.00772,-0.09225 0,-0.07533 -0.00885,-0.18983 -0.06896,-0.2444 -0.03836,-0.03484 -0.08737,-0.07076 -0.13926,-0.08106 -0.05923,-0.01176 -0.12249,-0.01407 -0.18275,-0.01407l-0.36572 0c-0.05259,0 -0.10315,-0.01207 -0.14635,-0.04303 -0.04489,-0.03219 -0.06362,-0.07935 -0.06362,-0.13385 0,-0.15295 0.11164,-0.2063 0.25039,-0.2063l0.65194 0 0 -0.16997 -0.69604 0c-0.06034,0 -0.12596,0.00407 -0.18461,0.01914 -0.04581,0.01179 -0.08985,0.02952 -0.12802,0.05787 -0.03906,0.02899 -0.06591,0.06941 -0.08466,0.11383 -0.02331,0.05517 -0.03227,0.11478 -0.03227,0.1744 0,0.09793 0.01963,0.2061 0.10202,0.26925 0.08476,0.06498 0.20261,0.08129 0.30641,0.08129l0.32773 0c0.03396,0 0.06905,0.00239 0.1022,0.01006 0.03276,0.00758 0.06266,0.02177 0.08692,0.04542 0.02819,0.02747 0.03954,0.06827 0.03954,0.10672l0 0.02756c0,0.05948 -0.01902,0.11482 -0.07365,0.14437 -0.05139,0.0278 -0.11741,0.03436 -0.17492,0.03436l-0.66113 0z"/>
    <path id="_259218328" class="fil0" d="M6.88297 1.60544l-0.20857 0 0 0.76036c0,0.06452 -0.00477,0.13858 -0.02678,0.19973 -0.01923,0.05338 -0.05388,0.09488 -0.10296,0.12332 -0.05753,0.03336 -0.13255,0.04129 -0.19785,0.04129 -0.0526,0 -0.10859,-0.00523 -0.15837,-0.02312 -0.04076,-0.01465 -0.07805,-0.03713 -0.10563,-0.07102 -0.02456,-0.03018 -0.0412,-0.06449 -0.04909,-0.10259 -0.00616,-0.02964 -0.0114,-0.05979 -0.01434,-0.08993 -0.00251,-0.02582 -0.00383,-0.05174 -0.00383,-0.07768l0 -0.76036 -0.21041 0 0 0.80814c0,0.015 0,0.03002 0,0.04503 0,0.01623 0,0.03246 0,0.04869 0,0.01721 0.00116,0.03494 0.00476,0.0518 0.00481,0.02243 0.01088,0.04487 0.017,0.06699 0.01046,0.03779 0.06861,0.11522 0.09227,0.14693 0.07104,0.09524 0.32088,0.10137 0.42581,0.10137 0.11249,0 0.35048,-0.00811 0.42567,-0.11037 0.03675,-0.04999 0.09075,-0.12897 0.0998,-0.19166 0.00471,-0.03266 0.00659,-0.0658 0.00893,-0.09869 0.00239,-0.03345 0.00359,-0.06698 0.00359,-0.10052l0 -0.76771z"/>
    <path id="_259218256" class="fil0" d="M4.76588 2.85969l0 -0.54214 0.79207 0 0 -0.15896 -0.79207 0 0 -0.03354c0,-0.02943 0.00304,-0.05875 0.00894,-0.08758 0.00637,-0.03112 0.01548,-0.0618 0.02605,-0.09173 0.01324,-0.03752 0.03568,-0.06943 0.06547,-0.09576 0.03356,-0.02965 0.07386,-0.04986 0.11674,-0.06222 0.05177,-0.01495 0.10628,-0.01969 0.16,-0.01969l0.41487 0 0 -0.16263 -0.38914 0c-0.12129,0 -0.28458,0.00967 -0.39449,0.06613 -0.07099,0.03645 -0.13253,0.08843 -0.15912,0.16576 -0.02361,0.06865 -0.04187,0.13977 -0.05081,0.21191 -0.00972,0.07843 -0.0126,0.15856 -0.0126,0.23753l0 0.57292 0.21409 0z"/>
   </g>
   <g>
    <path id="_259218040" class="fil1" d="M3.12826 0.01521c0.00514,0.36638 -0.01626,1.22765 -0.35392,1.33273 -0.34612,0.11197 -1.11241,-0.85295 -1.53862,-1.28878 1.01451,0.93016 1.75915,1.68679 1.89254,-0.04395z"/>
    <path id="_259217512" class="fil1" d="M1.09165 0.059c1.95846,1.96479 1.4179,2.18113 -1.09544,2.03216 2.25187,0.03587 2.45801,-0.39258 1.09544,-2.03216z"/>
    <path id="_259218112" class="fil2" d="M3.18141 0.09135c-0.01915,0.78352 -0.07636,2.11652 0.75078,1.00375 -0.83337,0.7444 -0.6241,-0.61804 -0.75078,-1.00375z"/>
    <path id="_259218136" class="fil2" d="M3.95879 1.12089c-0.34518,0.43792 -0.67112,1.00825 0.36126,0.94181 -0.83668,-0.1109 -0.50576,-0.57697 -0.36126,-0.94181z"/>
    <path id="_259217824" class="fil3" d="M3.08866 4.36838c-0.05772,-0.73754 0.02925,-2.29489 0.88746,-1.16973 -0.83761,-0.74867 -0.79857,0.79301 -0.88746,1.16973z"/>
    <path id="_259216840" class="fil3" d="M4.00638 3.11548c-0.39309,-0.40568 -0.74327,-1.03759 0.31316,-0.95474 -0.81277,0.12736 -0.53271,0.54629 -0.31316,0.95474z"/>
    <path id="_259216984" class="fil4" d="M1.12319 4.41116c0.29432,-0.27816 1.34894,-1.29618 1.12322,-1.81788 -0.19244,-0.47314 -1.88141,-0.38055 -2.27483,-0.37906 2.25278,0.11705 2.61546,0.47616 1.15161,2.19694z"/>
    <path id="_259216696" class="fil4" d="M2.99897 4.41769c0.10229,-1.62859 -0.21886,-1.86815 -1.73802,0.03407 0.34417,-0.31735 1.19196,-1.1466 1.41569,-1.12502 0.20589,0.03123 0.26353,0.91177 0.32233,1.09095z"/>
   </g>
  </g>
 </g>
</svg>
